<svg xmlns="http://www.w3.org/2000/svg" width="504" height="288" viewBox="0 0 504 288">
  <g id="Group_350" data-name="Group 350" transform="translate(-635.685 -196.927)">
    <g id="Group_229" data-name="Group 229">
      <path id="Path_619" data-name="Path 619" d="M635.685,196.927v288h504v-288Zm472.994,43.865c.46-2.727.128-3.461.421-5.13.158.993.134-.317.076,5.985-.143-.026-.305,0-.332-.073A1.8,1.8,0,0,1,1108.679,240.792Zm.068,44.072-.066.2C1108.663,284.77,1108.642,284.819,1108.747,284.864Zm-.884-50.645c.539.241-.091,8.4-.117.522A2.391,2.391,0,0,1,1107.863,234.219Zm-2.713.677c.059.01.047-.052.047.289C1105.13,235.174,1105.143,235.236,1105.15,234.9Zm-2.572-3.292c0-1.613.348-1.715.567-2.042l.893.593a5.889,5.889,0,0,1,.135.887c-.031,9.392-.024,8-.2,8.624C1102.326,240.463,1102.575,234.463,1102.578,231.6Zm-26.207-1.09c.447-.063.924.268.18.257a1.057,1.057,0,0,1-.323-.114C1076.274,230.607,1076.3,230.525,1076.371,230.514Zm-.719,1.57c0,.113.088.1-.369.044Zm-4.987-7.664c.443.066.424.043-.023.072Zm-3.161.864c2.583-.059,4.235-.234,3.815.378a16.351,16.351,0,0,1-3.631.077C1067.182,225.719,1067.089,225.5,1067.5,225.284Zm.419,2.739a46.372,46.372,0,0,1-8.281.049A40.244,40.244,0,0,1,1067.923,228.023Zm-3.825-2.57c.965-.144.623-.176,1.321.13a1.961,1.961,0,0,1-1.432.037C1063.97,225.617,1064.058,225.511,1064.1,225.453Zm-10.369-.262a35.634,35.634,0,0,1,6.857.052c-.513.277.626.276-6.491.451C1053.457,225.71,1052.942,225.253,1053.729,225.191Zm5.9,1.305-.3.039C1059.333,226.436,1059.255,226.449,1059.631,226.5Zm-12.512-2.071c.155.091-.17.183-.876,0A3.292,3.292,0,0,1,1047.119,224.425Zm-16.56-3.113c-1.435-.42-2.768-.008-3.437-.535.3-.03.6-.084.908-.087,13.6-.164,9.281-.2,9.323.886.049,1.287-8.608.3-29.869.342a42.532,42.532,0,0,1-4.784-.141C1003.428,221.42,999.746,221.6,1030.559,221.312Zm2.949,1.974c-3.855-.275-4.876.267-7.21-.345.021-.072.032-.159.048-.16,2.941-.032,5.883-.187,8.753-.044C1035.742,223.258,1034.672,223.369,1033.508,223.286Zm-10.854-.112-.025.088C1022.231,223.188,1022.244,223.215,1022.654,223.174Zm-2.979-.021c-.19.164.365.117-2.916.214C1017.717,222.786,1018.154,222.747,1019.675,223.153ZM999.75,221.9c.677.072.131.282-.27.176-.063-.017-.057-.082-.081-.126A1.656,1.656,0,0,1,999.75,221.9Zm-2.884.159c-3.684.347-2.405.3-4.515.022C993.592,221.864,996.025,221.613,996.866,222.054Zm-19.9-1.774a2.948,2.948,0,0,1,2.03.686h.126c.058.192.1.182-.1.044l.1-.044a.162.162,0,0,1-.126,0c-5.59,0-5.3.108-8.562-.588A33.516,33.516,0,0,1,976.965,220.28Zm-3.658,4.124c-.557.158-.205.176-1.3.016C973.166,224.321,972.808,224.336,973.307,224.4Zm-75.717,1.061c.263-.065.232-.072.085.035C897.378,225.584,897.406,225.6,897.59,225.465Zm-6.561,1.744c.473.084.5.055-.022.1Zm-21.983-3.735a4.217,4.217,0,0,1,2.236.6C867.03,225.02,842.853,222.058,869.046,223.474Zm-7.02,1.4a2.464,2.464,0,0,1-1.507-.03A2.369,2.369,0,0,1,862.026,224.878Zm-8.989-.6.1-.038c.4-.1.371-.11.1.043l-.1-.043c.157.069.072.055-.1.038-.709.261-.495.212-.914.123A1.424,1.424,0,0,1,853.037,224.28Zm-6.155,1.788c.233.051.379.092.48.124l.328.027c-.145.07-.062.056-.328-.027l-.786-.065A1.171,1.171,0,0,1,846.882,226.068Zm-4.964-2.8c-1.082.114-.748.095-1.177.015C841.252,223.1,840.936,223.077,841.918,223.266Zm-14.82.687c4.328.039,3.067-.926,11.179-.741-3.3.893-4.44.571-7.618.926a43.234,43.234,0,0,1-4.368.027A4,4,0,0,1,827.1,223.953Zm-6.97,1.951-.092-.04C820.35,225.775,820.319,225.762,820.128,225.9Zm-43.036-5.588c.138.151.192.123-.165.108Zm-30.134-3.72c1.234-.9,5.127.366.4.281C746.986,216.87,746.856,216.738,746.958,216.6Zm24.593.866c10.776.073-28.886.833-30.356.131C742.85,217.255,738.882,217.24,771.551,217.462ZM749.409,218.8c-.166.14-.006.135-.562.069C749.016,218.736,748.855,218.74,749.409,218.8Zm-3.768-.014c-.174.132-.008.127-.582.064C745.235,218.723,745.069,218.727,745.641,218.79Zm-3.215.073a4.021,4.021,0,0,1-2.08.009A2.834,2.834,0,0,1,742.426,218.863Zm-3,1.009c2.808-.074,32.593.028,35.262.116,0,.808-3.788.352-4.977.55-1.528.253-3.559-.493-5.51-.3-.424.042-25.4-.04-25.431-.04A.821.821,0,0,1,739.422,219.872ZM738.4,221.1c49.164-.546,41.712.485,46.645.158,2.289-.152,17.887-.3,22.54-.02.424.758.737.466-1.6,1.366a.515.515,0,0,0,0,.056c3.2.258-.073,1.161,0,0-.042,0-.073-.008-.117-.011l.11-.046c-.02-.009-.235,0-.919.023l.03.046c-.8.055-.549.06-.094-.044l.064,0c-.859-1.382-.459-.537-23.795-.75a93.56,93.56,0,0,0-9.908.344c-4.585-.641-1.412-.484-15.824-.331-7.025.075-3.772-.2-14.611-.089-5.318.057-2.9.168-6.054-.014C734.939,221.233,736.206,221.127,738.4,221.1Zm62.93,1.718c-2.962.347-3.032.047-9.9.508a80.322,80.322,0,0,1-8.373-.05c.171-.133.265-.317.459-.338.894-.1,1.813-.205,2.728-.215C802.113,222.553,799.63,222.6,801.327,222.821Zm-51.2,5.47-.147-.047c-.24,0-.718.011-1.605.023-.029.016-.054.028-.085.046l-.008-.005a1.215,1.215,0,0,1-.186.009.967.967,0,0,1-.712.008l-.241,0c-.036-.017-.072-.037-.107-.057-.423-.02-1.681-.048-5.121-.149a30.482,30.482,0,0,1,4.629-.055,1.159,1.159,0,0,1,.492.2,1.025,1.025,0,0,1,.189.016l.017-.008c.047.018.094.031.142.046l.712-.008a.833.833,0,0,0,.107-.048l.172,0c.563-.3.728-.309,1.605-.023a.884.884,0,0,1,.224.008l.011-.008c.024.015.051.023.076.037.476-.053,2.254-.456,2.137-.05a2.263,2.263,0,0,1-2.137.05c-.089.01-.127.006-.1-.016C750.169,228.272,750.146,228.28,750.125,228.291Zm-23.97,4.571a2.144,2.144,0,0,1,1.227-.008c.532.156-.329.538-1.363.144C726.062,232.952,726.075,232.886,726.155,232.862Zm-47.791-7.4c1.312-.43,16.31-.009,18.587.241-6.99.13-12.915.24-18.9.124C678.184,225.655,678.2,225.512,678.364,225.457Zm-4.995,11.584c.121.553.214.782.064.884C673.088,238.158,673.331,237.241,673.369,237.041Zm-1.175,4.44.077.149C672.074,241.63,672.1,241.668,672.194,241.481Zm-2.952-.065.621.277c-.167.125-.27.264-.375.265a.487.487,0,0,1-.372-.179C669.079,241.674,669.193,241.538,669.242,241.416Zm-.045,6.505c.122.122.232.182.233.242.04,2.624.027,2.209-.159,2.417-.066-.024-.181-.04-.191-.074-.256-.907-.057-.742-.016-1.295C669.111,248.553,668.908,249.055,669.2,247.921Zm-2.374-.672c.149.217.137.126.045.353-.055,0-.148,0-.158-.014C666.6,247.385,666.727,247.345,666.823,247.249Zm-2.425,7.89c.031.054.109.134.086.159a1.4,1.4,0,0,1-.268.229.388.388,0,0,1-.011.113.982.982,0,0,1-.077.061c-.086,2.412,0,2.014-.3,2.21a2.977,2.977,0,0,1,.02-1.938c.034-.1.167-.185.283-.272l0-.111.074.05c-.092-.062-.081-.054.011-.113C664.216,255.384,664.185,255.234,664.4,255.139Zm-.69-4.484c.7-.315.6.041.38,2.431-.011.121-.17.233-.261.35C663.6,253.1,663.645,253.431,663.708,250.655Zm-5.2-1.049a3.05,3.05,0,0,1,.007,2.524A3.135,3.135,0,0,1,658.511,249.606Zm.124,7.92c-.645-.754-.221-1.513-.221-4.31A9.567,9.567,0,0,1,658.635,257.526Zm-3.646-9.366a3.47,3.47,0,0,1,.325,1.971c.051,1.372.324,2.769-.347,4.11C654.559,252.053,654.559,251.39,654.989,248.16Zm-.108,8.671c.023-.031.116-.034.177-.05C655.277,257.341,654.638,257.176,654.881,256.831Zm-2.843,169.984-.089.131C651.929,426.75,651.9,426.783,652.038,426.815Zm1.927,11.072c-.94.57-.8.36-1.33-1.09-.29.24-.47.39-.69.56-1.04-1.83.22-3.12-.5-5.82-.25-.96.35-1.89.5-2.85a4.612,4.612,0,0,1,.45,1.85c.13.67-.3,1.34.09,2,.04-.01.2,0,.21-.25.56-14.29.35-10.77.74-9.5.12.42.51.82.18,1.28a3.659,3.659,0,0,1,.1,2.42C653.705,426.527,654.385,435.667,653.965,437.887Zm1.33-137.17c-.02-.02-.03-.04-.05-.06l.07.05c-.01,0-.01.01-.02.01.8,1.08.45.86,1.58,1.08.67,1.68-.22,6.58.66,8.63.4.94-.17,1.92.03,2.87-.61,1.77-.3,3.58-.53,5.37-.16,1.36.83,6.41.45,7.37-.94,2.29-.5,7.89.05,9.35.1.27-.03.58-.06.98-.95-.52-1.48-1.1-1.53-1.88a10.172,10.172,0,0,1,.18-3.57c.54-1.21.37-1.69.06-8.9a1.821,1.821,0,0,1-.45.31c-1.05.35-.33-2.95-.46-3.99-.04-.35-.52-.64-.3-1.05.24-.1.48-.21.72-.31a1.3,1.3,0,0,0-.06-1.48c-.94.6-.96.84-.99-2.61C654.565,300.8,654.445,301.247,655.295,300.717Zm-.047-.058c.03-.021.047-.049.075-.072.023-.7.047-1.415.086-2.6.25.766.672,1.962-.086,2.6l0,.116Zm1.434,65.8c0-1.978-.053-1.76.158-1.774C657.148,366.151,657.42,366.72,656.682,366.458Zm-1.13,71.4c-.11.832-.808.572-.842.074,0-.059-.085-6.035.126-7.112.248-.181.676-.277.689-.06a17.817,17.817,0,0,1-.037,5.342C655.39,436.51,655.715,436.643,655.552,437.863Zm.152-66.511c-.751-1.444.6-4.053,1.516-3.834.426.1.281.437.556,1.179.483-.277.206.161.7-1.5.054-.182.534-.419.622-.325.7.746-.908,1.346.35,1.975.406.2.346.495.3.792l-.541-.169c-1.15.717.063,1.512-1.3,1.692l-1.043-1.148-.606,1.453C656.012,371.42,655.74,371.421,655.7,371.352Zm2.27-40.947c-.319-.18-.152-.341-.047-.486C658.152,330.027,658.145,329.9,657.974,330.4Zm-.095,1.8c0-.514-.024-.426.1-.433C657.989,332.279,658.013,332.193,657.879,332.2Zm.626,16.614a2.633,2.633,0,0,1,.026,2.3C658.095,349.867,658.093,349.866,658.505,348.814Zm.658,16.176c-.364-.425-.356-.426-.122-1.193C659.5,364.17,659.286,364.583,659.163,364.99Zm.021-8.728c.014-.04.012-.1.046-.117a.328.328,0,0,1,.1-.03l.059-.06c.087.065.032.045-.059.06Zm-2.278,66.627c-.332-.426.053-1.093.177-1.356l-.06-.067c-.141-.2-.163-.18.065-.048l-.065.048c.123-.091.113-.045.06.067C657.716,422.23,657.671,422.391,656.906,422.889Zm.087,1.136c-.022-.057-.081-.151-.058-.165C657.239,423.678,657.473,424.028,656.993,424.025Zm.343-7.6c.14.19.17.372-.065.536C657.127,416.74,657.1,416.888,657.336,416.42Zm-.06-4.916c.245.005.213-.046.092.2Zm-.023,7.1c.361.6.09,1.016.1,1.442A1.244,1.244,0,0,1,657.253,418.6Zm.1-10.745a14.15,14.15,0,0,1-.017-5.258A12.243,12.243,0,0,1,657.358,407.859Zm.011,21.95c.717,1.493-.348,1.763-.176,2.152.393.893-.167,1.759-.086,2.645a21.629,21.629,0,0,1-.235,5.147c-.575-.134-.484.168-.282-14.248a1.744,1.744,0,0,1,.12-.432c.089.008.224-.01.261.028a1.755,1.755,0,0,1,.587,1.873c-.2.519-.009,1.048-.222,1.533A1.455,1.455,0,0,0,657.369,429.809Zm.453-45.894a4,4,0,0,1,.986,2.016,11.7,11.7,0,0,0,.494,1.49c.3,1.167-.543,1.475-.8,1.351-.227-.108-.518-.28-.557-.453A12.223,12.223,0,0,1,657.822,383.915Zm1.284,6.837c-.1-.482-.105-.364.059-.46C659.256,390.778,659.267,390.661,659.106,390.752Zm-.736,50.1c-.754-.95-.106-6.752-.228-14.335-.116-7.173-.1-19.461.885-26.7,1.085.79-.646,22.3,1.114,24.727a2.518,2.518,0,0,1-.184,3.208l.039-.026h0l-.037.026c.069-.043.1-.005.115.082.543.33.617.754.277,1.332a2.712,2.712,0,0,1-.277-1.332,1.193,1.193,0,0,0-.117-.081c-.138.093-.462.324-.487.434a8.205,8.205,0,0,0-.03,3.1l1,.855c.315,2.179-.066,1.967-1.024,2.179C659,439.084,659.778,440.6,658.37,440.849Zm3.022-35.974a23.042,23.042,0,0,0-.546,3.65c-.383-7.717-.556-6.623.037-7.81.416.74.791,1.317.7,1.538C661.242,403.116,661.674,403.989,661.392,404.875Zm-.57,7.67c.073-.662.022-.578.188-.567C660.936,412.64,660.987,412.555,660.822,412.545Zm.06,1.868c-.081-.235-.1-.146.067-.341C661.029,414.306,661.046,414.217,660.882,414.413Zm.151,2.061c0,1.923.074,1.543-.271,1.8C660.729,417.111,660.666,416.831,661.033,416.474Zm-.674,21.207c-.22-.246-.254-.1-.011-.564C660.479,437.632,660.458,437.474,660.359,437.681Zm-.6,20.3c0,.546.022.476-.065.475C659.691,457.908,659.669,457.978,659.756,457.978Zm-.134-3.719c.154-1.662.118-1.719.118,0Zm.19,6.1c-.291-.257-.3-.453,0-.7Zm1.757,1.284c-.244-.146-.529-.008-.5-1.339.03-1.215.321-18.158-.06-19.461l-.873-.129c-.049-.887-.049-.887.9-1.433.53-.764-.129-1.637.4-2.43.539.319.5-.9.524,12.522C661.981,461.8,662.157,461.23,661.569,461.646Zm5.805-6.158-.243-.057C667.488,455.4,667.427,455.384,667.374,455.488Zm2.312-.033a3.858,3.858,0,0,1,1.657-.028C670.013,455.6,670.448,455.582,669.686,455.455Zm3.2-.937c-6.04.075-5.149.062-5.532-.051a34.142,34.142,0,0,1,6.2-.05A4.848,4.848,0,0,1,672.884,454.518Zm-3.139-4.5c.552-.19.388-.173.6-.01C669.852,450.177,669.983,450.183,669.745,450.018Zm4.834,5.477c-.2-.075-.116-.121.218-.118l.082.09A1.325,1.325,0,0,1,674.579,455.495Zm.515,3.238.058.16C675,458.893,675.024,458.933,675.094,458.733Zm-.033-4.35c-.008-.19-.036-.159.091-.124ZM675,452.93l.117-.133c.018.054.069.117.048.162C675.078,453.15,675.013,453.138,675,452.93Zm64.745,8.564.021-.078C740.233,461.486,740.213,461.462,739.746,461.494Zm104.009.161c-25.205.068-20.392.345-25.572.314.335.361.452.278,6.159.43-.483.15,1.429.128-21.743.194-26.495.075-29.374.208-28.5-.486a3.231,3.231,0,0,1,1.747-.827c40.512-.351,46.172.3,49.846-.2,1.181-.159,2.389.08,3.585-.08.35-.047,5.674.387,9.967.306,2.81-.052,5.63-.083,8.7.135A35.821,35.821,0,0,1,843.755,461.655Zm-65.239-1.22c1.756-.121,3.383-.036,4.92-.178,1.476-.136,2.905-.046,4.363-.038,30.226.182,24.907-.039,27.221.217a2.975,2.975,0,0,1-.7.2c-2.127.061-4.273.193-6.385.134C799.567,460.538,781,461,778.516,460.435Zm38.891-.08a5.139,5.139,0,0,1,.687.12,2.465,2.465,0,0,1-1.092.011C816.884,460.408,817.051,460.338,817.407,460.355Zm3.6.126c.455-.123.3-.1.585-.011A1.116,1.116,0,0,1,821.008,460.481Zm10.258-.2c.181-.14.437-.053,1.4.134C831.973,460.7,831.014,460.478,831.266,460.284Zm28.725-.03.08.034C859.776,460.354,859.8,460.365,859.991,460.254Zm3.243.9a5.784,5.784,0,0,1,2.441-.038A4.959,4.959,0,0,1,863.234,461.152Zm10.583-.046a6.18,6.18,0,0,1,2.183.009A4.265,4.265,0,0,1,873.817,461.106Zm6.2-.677h1.671A3.943,3.943,0,0,1,880.019,460.429ZM903.8,462c.209-.153.132-.162.278.011Zm2.035.213c-.074-.123.091-.166.4-.1a2.62,2.62,0,0,1,.44.137l.221.006a.237.237,0,0,1-.221-.006A5.039,5.039,0,0,1,905.839,462.213Zm7.719.427a32.639,32.639,0,0,1-5.833-.058c-.448-.041-.706-.375-.907-.284a70,70,0,0,1,7.14.064C913.743,462.517,913.677,462.629,913.558,462.64Zm2.877.193c-.212-.081-.117-.131.242-.129l.082.1A1.489,1.489,0,0,1,916.435,462.833Zm3.145-.03.685-.044Zm-3.682-2.367a89.975,89.975,0,0,1,9.582-.018A67.008,67.008,0,0,1,915.9,460.436Zm24.024,3.146a16.5,16.5,0,0,1-3.936-.021c-.733-.089.475-.626,1.789-.475a9.175,9.175,0,0,1,2.151.369C939.926,463.5,939.948,463.579,939.922,463.582Zm20.865-2.656.082.035C960.549,461.033,960.576,461.044,960.787,460.926Zm3.285,3.2a1.057,1.057,0,0,1,.784.036C964.036,464.215,964.242,464.221,964.072,464.124Zm48.335-3.3c-.177-.147.474-.2.794-.136a1.014,1.014,0,0,1,.241.1C1013.083,460.841,1012.569,460.957,1012.407,460.82Zm2.973.021c-.225-.071-.133-.121.232-.114.035,0,.064.056.095.086A1.457,1.457,0,0,1,1015.38,460.841Zm3.488.021a9.527,9.527,0,0,1,2.668-.23C1020.48,461.148,1019.639,460.77,1018.868,460.862Zm31.446,5.264,3.894-.069A12.8,12.8,0,0,1,1050.314,466.126Zm39.355,1.452c-3.221.107-1.771-.6-1.687-.774-2.065-.016-29.888-.154-31.623-.691,2.482-.175,16.076-.238,16.1-.238,4.008-.016,3.136.444,6.67.4,15.847-.2,12.643-.532,14.86.169-.282.409-1.143.236-1.682.348C1091.885,467.081,1094.694,467.41,1089.669,467.578Zm18.826-8.661c-2.48-.05-3.51-.17-4.91-.24a4.228,4.228,0,0,1-.15,2.38c1.93.09,3.89.16,5.82.3-.02.11.01.21-.06.22a4.885,4.885,0,0,1-1.07.18c-1.87-.06-3.54-.12-5.04-.18a5.321,5.321,0,0,0-.72,1.67c.91.06,2.02.14,3.37.24a34.34,34.34,0,0,1-3.45.09c-.03.15-.06.32-.08.48.83.04,1.81.12,3.04.29a1.638,1.638,0,0,1,.63.34c-.32.36-1.45.4-1.44.83a18.2,18.2,0,0,1-2.33.13c0,1,.09,2.04.15,3.15-.46.46-.93.93-1.47,1.46a5.129,5.129,0,0,1-.4-.99,7.47,7.47,0,0,1,.03-3.16,4.393,4.393,0,0,0,.12-.49c-1.12-.05-2.25-.13-3.43-.16a44.317,44.317,0,0,1-6.08.26c-.03.43-.07.39-.1,0-.27,0-.55-.01-.83-.01-5.93-.13-8.5.04-9.22-.21.45-.24-.52-.17,4.72-.32.38-.2.05-.34-.28-.36-3.27-.17-6.54-.18-10.33-.05,9.71,1.05-5.49,1.22-13.8.64-5.19-.37-13.93-.18,10.78-.56-.8-.29-6.9-.09-10.95-.41-1.03-.08-2.1.1-3.18-.04-1.01-.13-2.11-.14-3.21-.2.86-.48,3.32-.21,5.15-.42-2.4-.02-5.9-.05-8.4-.33-1.94-.22-.9.06-9.97-.44a4.285,4.285,0,0,1-1.87-.63c-1.58-.05-3.31-.1-5.04-.18-.28-.01-.96-.36-.18-.47a22.839,22.839,0,0,1,2.92-.2c-.66-.2-.26-.12-10.09-.33-.82-.02-.9-.09-1.19-.31-.31-.25,1.68.13,4.24-.15.95-.1,1.09-.03,16.49-.12,2.39-.02,3.02-.26,3.55-.22,2.61.2,1.7-.14,6.34.06,3.21.14-1.3.21,8.37.1-.17-.26.4-.43-3.72-.6-13.6-.56-12.32-.21-13.52-.51.86-.66,5.16-.32,6.46-.6-.1-.2-.52-.15-.8-.16-44.76-.77-40.96-.86-44.9-.42,1.09.21-1.53.29,10.17.38,12.6.11,12.96-.07,14.69.39.47.36-3.59.18-4.36.1-2.74-.29-10.84-.26-12.84-.23-19.4.21-17.11-.12-18.46.12-.11.02-.5.32.05.37,1.33.13,1.11-.15,3.93-.18,1.08-.01,9.88-.06,10.69.23a9.471,9.471,0,0,1-2.25.24c-4.75.7-17.93.05-23.62.23-1.34.04-1.59.16-1.97.91a21.674,21.674,0,0,1-4.15.36c-11.7.15-12.53.19-14.46.02-2.32-.21-2.78.17-5.06-.27a4,4,0,0,0-1.36-.26c-9.72-.29-9.68-.21-10.76-.44-2.46-.55-20.03-.82-20.34-.79-2.69.3-15.42.31-16.78-.69.23-.31,1.3-.1,1.49-.43a36.241,36.241,0,0,0-5.21-.03,45.047,45.047,0,0,0-5.19.08c-.18.26.71.19.84.38-.02.04-.03.11-.07.11a70.768,70.768,0,0,1-11.93-.13c-.86-.03-1.31.64.77.77,3.21.19,2.07-.04,2.96.3a3.042,3.042,0,0,1-.72.16,35.74,35.74,0,0,1-5.18-.18c-1.13-.15-1.92-.07-11.64-.22-5.43-.09-2.87.63-7.26.7-5.69.09-6.24.04-10.3-.01a3.73,3.73,0,0,1,.82-.27c3.51-.19,4.64,0,5.59-.26-1.33-.12-30.37-.16-35.82.06-.27.23-.49.42-.8.7-1.55.15-5.63.36-5.09-.26.4-.46,2.73-.22,2.94-.21.41.02.44-.05.12-.32-5.47-.09-10.95-.06-15.96-.04-.67-.21-.61-.32-.24-.33,10.08-.18,12.06.16,12.66-.53-2.55-.27-5.09.21-7.61-.04-2.52.07-5.04.14-7.6.22.48.51.89.7-.92.7-.33,0-29.23-.03-31.23-.03-.8-.21-1.47-.38-2.03-.53-.94.06-1.08.39-1.82.64a21.3,21.3,0,0,1-4.02.04c-.41-.52-.3-.54-.98-.7-.37-.09-.59.13-1.05.43-.96.16.96.14-9.58.06a17.452,17.452,0,0,0-2.4,0,25.131,25.131,0,0,1-5.55.09c-1.16-.07-5.67.03-8.86-.03-6.47-.11-8.14-.51-14-.15-4.5.27-13.88.06-16.89.06-27.78.01-23.96.19-27.15-.28-.06-.29.41-.25.71-.3a1.683,1.683,0,0,0,.62-.17c.35-.71,1.6-.83,3.02-.83,4.83,0,9.65-.16,14.48.04a11.816,11.816,0,0,0,1.19.01c5.34-.2,9.64.07,10.83.03,11.35-.47,19.08.27,22.64-.31-1.83-.19-2.03-.08-13.99-.06-17.36.02-15.14-.41-9.84-.42,5.24-.01,5.69-.36,8.38-.34,14.86.1,13.09.3,13.87.01,1.09-.39-3.92-.56-5.34-.52-4.37.15-2.74-.1-5.57.08-4.62.28-4.42-.11-4.99-.62-3.55-.28-3.9-.2-30.18-.11-2.25,0-2.61-.44-7.15-.1-.29.02-.42-.11-.26-.29.45-.01.96-.03,1.47-.04.8,0,1.64.07,2.4,0,4.2-.38,32.26.01,33.26-.29-1.12-.38-6.99.09-7.66-.43-.17-.12.33-.29.76-.25.26.02.51.06.77.09,1.87.21,1.31-.29,6.3-.28.02,0,10.54-.03,11.61.08a16.826,16.826,0,0,0,4.96-.33h-.06a4.046,4.046,0,0,1,1.57-.35,3.38,3.38,0,0,0,.08-.34,31.663,31.663,0,0,0-8,.19c-5.01-.39-8.06-.09-14.16-.3-7.45-.25-3.98.14-8.38.08-12.72-.17-13.57.23-14.97-.45-.21-.1-.09-.38.23-.42,1.63-.2-.16-.21,13.61-.17,2.82.01,3.52-.35,8.37-.13a1.216,1.216,0,0,0,.9-.26c.39-.71-5.57-.09-7.08-.2-2.79-.21-5.62-.02-8.42-.2-2.22-.14-4.16.18-5.45-.13-.01.01-.02.01-.03.02h-.01l-.005,0a.481.481,0,0,1-.115-.026,4.057,4.057,0,0,1-1.769.12c-.1-.015-.46-.3.079-.345a4.742,4.742,0,0,1,1.69.225c.024-.007.052-.006.075-.014l.005,0c.03.01.05.01.08.02.32-.2-.04-.31,3.64-.37,7.32-.11,4.09.22,6.42-.49a3.471,3.471,0,0,1,3.29.71c.76.04,1.39.01,1.63-.36-.33-.22-.67-.45-1-.67.44-.38,1.42-.21,2.04-.39a6.451,6.451,0,0,1-1.9-1.05c3.1-.5,5.29.1,5.55-.37h-26.42c.01.8-.12,1.61-.16,2.35-.32.39-.73.32-1.11.38a2.219,2.219,0,0,0-.65.33c-.25-.62.16-.92.74-1.22a5.213,5.213,0,0,0,.24-1.84h-5.27c.05,2.93-1.41,2.44-.94,4.28a.994.994,0,0,1,.09.44,8.436,8.436,0,0,0-.16,1.327c2.291-.038,6.033-.039,10.809.041.239.1.251.242.03.242-5.2.023-8.724,0-10.849-.042v0c-.1,3.35,1.33,6.64-1.28,7.83-.3-.14-.63-.04-.65-1.11-.05-2.73-.08-4.96-.1-6.78v-.006c-.67-.039-.638-.081,0-.117-.05-7.067.05-7.817-.75-8.107h-.26c-1.27,3.83-.57,1.92-.56,3.19a3.458,3.458,0,0,1-.18,1.09c-.02.09-.29.14-.46.21-.71-.96.12-1.38-.65-2.82a.774.774,0,0,0-.77-.2c-.47.26-.35.08-.72,1.92-.34-.16-.67-.22-.77-.38-.77-1.16.28-1.08-1.66-.85-.49-.53-.94-1.01-1.37-1.47,0-.3.16-.43.51-.47a.45.45,0,0,0,.35-.17,53.432,53.432,0,0,1-6.93-.18c.07-.17.05-.34.22-.48,1.06-.86,3.73-1.03,6.42-1.05h.2a1.775,1.775,0,0,1,.71-.71c.02.27.03.51.05.71.33-.01.74-.01,1.2-.01.01-.71.05-1.71.14-3.11l-.71-.03c-2.36-.11-1.9-.19.73-.24.02-.2.03-.42.05-.64a3.263,3.263,0,0,0-.09-2,1.121,1.121,0,0,1,.01-.88c.79-2.15-.04-5.16.56-6.93.54-1.6-.71-1.48-.78-3.48-.12-3.36.03-2.81-.29-3.57-.08-.19-.59-.24-.58.05.08,2.32-.25,4.63-.4,7.24-1.5-10.76.91-7.13-2.13-14.16-.05-.13-.24-.22-.38-.34-.39,1.8-.07,3.6-.25,5.5-1.42,1.37-.63,2.66-.97,4.23-.04.15-.35.26-.54.4-.46-.54-.37-1.96-.74-2.7a30.254,30.254,0,0,1-1.29-4.37c-.54-1.71.11-1.66-.12-2.65a5.909,5.909,0,0,1-.39-1.98c.34-3.24-1.17-4.51-1.03-6.2.23-2.81-.71-4.56.48-8.97.19.15.38.21.41.31.49,1.77.01,1.19,1.04,1.68,1.08-2.49-.65-3.24-1.47-6.47.51-1.31.34-.86.68-1.79-.19-.62-.89-1.01-.94-1.65a12.724,12.724,0,0,0-.44-1.54c-.73-3.74.11-.41-1.14,1.1a.776.776,0,0,1-.98-.07c-.23-.22-.26.05-.32-6.48-.02-1.39,1.33-2.16,1.1-4.15-.21-1.8,1.47-2.98,1.4-7.54-.04-2.37.68-.83-.44-2.94.23-2.71.38-.45-.36-7.97h-1.46a43.5,43.5,0,0,1-.21-4.96,1.332,1.332,0,0,0-.49-1.23.06.06,0,0,0,.01.04h-.01c0-.01-.01-.01-.02-.03s-.01-.02.02-.01c-1.14-2.97,1.38-5.01-.15-7.94-.6-1.14-1.26-4.59-.75-5.98,1.1.09.55,1.07,1.38,1.38.12-10.53-.04-12.03-.35-16.25-1.28-.69-1.4-.38-1.41-2.62-.19-23.96-.6-18.81.25-22.42.61.49.11.53.48,3.08.08.58-.26,1.21.29,1.79.23-.11.46-.22.68-.32.38-6.34.12-5.42,1.32-7.11-.14-1.61.32-2.11-.22-2.55-.57.45-.07,1.02-.33,1.5-1.25,2.33-.31-20.02-.8-22.46-1.49-.74-1.62-.56-1.62-2.41,0-3.85-.37-4.16-.2-4.7a3.453,3.453,0,0,0-.77-3.03c-.1,4.16-.19,8.28-.29,12.44-1.06.03.03-2.64-1.27-15.9-1.01,2.37.11,5.78-.59,7.56-.15-.1-.34-.17-.34-.25-.31-3.27.3-4.67-.17-6.73a8.948,8.948,0,0,1,.24-2.28c.55.64.68,1.03,1.43.73.41-7.22-.74-6.73-.43-11.63.08-1.25,1.35-2.3,1.32.39-.13,11.15-.74,10.35,2.14,9.56,1.31-.36.21-5.29.82-9.76.41.05.4.25.41.4.15,3.44-.07,4.2.26,5.6.32.16.64.12.67-.13.41-3.95-.6-3.63.09-5.6.05-.15.39-.24.69-.41.45,1.14-.09.37.67,6.27-.57,1.49-.43,1.85-.36,11.96,0,1.13.64.98.73.75.4-.99.78-1.99,1.18-3.01.14.41.28.83.4,1.2.25.14.39.09.44-.12a3.374,3.374,0,0,0-.24-2.65c-.79-1.31-.38-3.04-.87.37-.27.05-.43.07-.6.1-.62-8.76,1.42-4.98,2.43-4.7.09-.03.24-.04.25-.08a8.9,8.9,0,0,0,.13-4.68,12.062,12.062,0,0,1,.21-4.02c.02-.13.17-.25.26-.38.68.23.2-.25,1.54,1.78.04.06.15.09.27.17.93-1.59.56-2.05,1.01,2.48.08.14.33.12.33-.07a4.89,4.89,0,0,1,.96-2.52c-.76-2.82-.8-1.59-.24-5.01.52-.63,1.36-.39,2.06-.71a4.41,4.41,0,0,0-.12-4.24,3.511,3.511,0,0,1,.66-1.75c1.93.83-.69,2.66.61,5.11a7.627,7.627,0,0,1,.5,2.91c1.64-.2-.14-2.57.58-6.43,3.61,5.2,2.78-1.6,2.79-5.47-1.12-.11-1.98-.33-2.14-.72a4.047,4.047,0,0,1,2.19-.5c.02-.14.03-.26.05-.38.59.14.93.18,1.16.26v-1.12h1.733l-1.011-.034c-4.439-.154,2.9-.692,9.044-.3.328.021.344.19.067.334H691.2a26.484,26.484,0,0,1,7.39-.43c3.77.16,2.7.1,14.27-.11a22.779,22.779,0,0,0,3.57.54h13.79c.96-.05,1.63-.09,1.88-.1.12-.31.26-.62.39-.93-.65-.38-1.76-.06-2.52-.29-.59-.47-.55-.65.14-.82a15.822,15.822,0,0,1,5.71-.75,15.165,15.165,0,0,0,5.28-.55h6.02c-2.85-.39-6.13.18-9.58-.5,2.36-.16.11-.17,11.6-.17a4.162,4.162,0,0,1,2.01.43h.01c.82-.07,3.56-.27,11.53-.8a3.256,3.256,0,0,0,.5-.16c-.63-1.09-.18-.78-2.15-1.35l.79-.76c2.84.65,1.24.54,9.6.53,3.19-.01-.18-.38,7.87-.39a13.4,13.4,0,0,0,4.04-.45c.47-.44.16-.87-.08-1.36,10.52-.05,14.35-.86,16.28-.44a16.059,16.059,0,0,0,6.74-.19,6.626,6.626,0,0,1,2.78-.13c.27.13.58.28,1.02.49,4.53.56,6.3-.41,10.02-.21a.092.092,0,0,1-.06-.04l.09.04h-.03a4.405,4.405,0,0,0,1.49.35,22.707,22.707,0,0,1,3.65.2c2.23.67,4.7.5,7.05.48.59-.19,1.07-.35,1.73-.57,1.91-.01,6.15-.23,7.86.3l.02-.01c3.85-.43,4.59.12,5.69-.39h.01c.01,0,.01-.01.02-.01s.01,0,.02-.01h.01c.12-.05.55-.21,1.6-.62,2.33.06,4.06.76,6.31.9a16.612,16.612,0,0,0,2.36-.59c3.74-.11,7.5.14,11.32-.17-.25-.26-.47-.49-.68-.71h-.14l.094-.047a1.033,1.033,0,0,1-.566-.021,22.92,22.92,0,0,1-3.655-.091,11.059,11.059,0,0,1,3.655.091c.189.005.38,0,.567.021l.005,0a.176.176,0,0,1,.04.05c2.13-.05,4.27.26,6.4.03,1.68.15,3.42.08,5.08.38,1.57.3,3.28.46,5.01.68,3.33-.18,5.25-.36,5.18-.03-.15.64-3.06.37-4.59.63-4.75.79-8.29.68-12.48.9,1.27.79-1.63.64,34.42.13a19.606,19.606,0,0,1,6.17.65c6.04-.31,11.94-.11,17.82-.16-1.24-.58-2.12-.18-7.04-.56,4.66-.55,9.46.31,13.64-.71,1.94-.47,3.22-.35,8.62-.27.76.14.55.54,1.28.59a3.5,3.5,0,0,0,1.6-.21h0c-.021-.035-.039-.04-.059-.063a1.594,1.594,0,0,1-.189-.031c.043-.084.113-.056.189.031l.157.023-.02.008.02-.008c-.27.12,1-.06,1.76.06a59.126,59.126,0,0,0,7.45.36c21.88.66,16.58-.19,22.49,1.82.35.65,1.42,1.24,1.98,1.93-.01.64-1.51.9-2.07,1.4a35.891,35.891,0,0,0,6.47.2c6.12-.44,30.51.21,34.64-.19,1.22-1.12-5.23-.12-6.58-1.5-3.96-.68-3.4-.58-7.68.33-2.74.08-1.74.08-9.68-.07,1.04-.53,2.52-.02,3.53-.38.39-.35-.6-.57-1.32-.56-3.93.05-4.32.18-4.52-.12-.53-.81.8-.63,6.75-.94,2.92-1.36,2.65-1.42,4.74-1.47,1.26-.03,2.54.03,3.77-.05,1.68-.12,1.41-.32,4.88-.58-1.65-.27-3.06.01-4.45-.29-.17-.17-.4-.4-.69-.68-2.41-.14-4.9-.16-7.21-.12-.43.16-.41.31-.03.34a30.233,30.233,0,0,0,4.4.48c-1.55.37-.15.26-4.03.27-4.62.01-3.33.65-15.99.06.11-.35.21-.65.3-.94a93.521,93.521,0,0,0-9.91-.45c-7.54.08-17.9-.43-24.05.2-2.82.29-43.02-.02-45.1.22.47.58,2.21.2,2.64.73-.23.3.36.03-2.84.32a15.666,15.666,0,0,1-2.3-.12c-2.63-.14-2.94-.08-9.35-.35,3.12-1.95,3.13.14,5.44-.48-.71-.77-.71-.77.77-1.34,4.36,0,3.53-.13,6.33.47a18.42,18.42,0,0,1,3.41-.46,16.333,16.333,0,0,0,4.91-.39c-.16-.11-.28-.29-.48-.32-2.11-.21-3.67-.07-4.62-.78.45-.34,1.4-.26,2.04-.45-.81-.26-1.94-.15-3.31-.45a29.847,29.847,0,0,1,5.67.12,10.435,10.435,0,0,0,5.86-.04,46.748,46.748,0,0,0,7.75.32c4.19-.17,8.86.51,17.35.68,7.32.13,3.67.38,9.39.3,5.19-.08,4.81.25,5.52.73,5.54.4,5.18.27,19.12.18a4.488,4.488,0,0,0,1.85-.25,68.466,68.466,0,0,0-8.8-.22c-.4-.19-.5-.47-.04-.47,1.91.03,3.7-.31,5.6-.28,7.64.09,1.44-.18,13.84.37,8.28-.86,7.73-.34,12.28-.61,2.95-.18-.72.16,7.45.19,21.12.07,18.18.07,21.23.23.47.03,1.55.39.17.64-1.86.33-1.55-.01-3.1-.16-.46-.04-.89.07-.95.36a37.769,37.769,0,0,0,4.31,1.06.143.143,0,0,1-.026-.034h0l0,0,0,0c.181-.091.15-.1.082.043l-.033-.016.037.02c-.02,0-.04-.01-.06-.01.34.43,1.5.26,2.08.51-.37.45-.38.46-2.02.66.46.2.45.49,3.29.61,2.92.11,7.66-.27,9.31-.14,2.78.22,8.52.13,8.21.47-.28.29.05.31-4.16.25-5.67-.08-3.68-.19-5.65.18a9.112,9.112,0,0,0,1.36.25c4.16.09,11.9-.46,20.13.17,0,.74,1.25.57-11.26.61-8.54.03-8.53-.05-8.9.4,6.21.1,6.69-.08,18.17.42a2.811,2.811,0,0,1,.68.21c-.91.41-2.09.12-3.11.22-1.05.11-2.08.27-3.11.41-1.41.06-2.66-.48-4.11-.2-.16.03-.61.32-.19.44,1.1.35,2.69-.24,7.39.29-.458,1.264-.449.935.231,1.424l.13,0c.191-.221.257-.355.684-.29.451.068.461.159.024.224a5.814,5.814,0,0,1-.708.066c-.018.021-.031.038-.052.06h0l-.061-.026a.224.224,0,0,1-.031-.015l-.015-.009h0c-.33.64.71.8,1.91.96a10.411,10.411,0,0,1-3.2.53c-.2.07-.28.14-.29.2h25.08a6.658,6.658,0,0,1,.22-1.7c.3-.68.47.12.56,1.7h3.856a33.581,33.581,0,0,1,.152-4.023c.077.917.095,2.522.075,4.023h.657c-.05-8.66.15-5.29,2.07-6.56.71,1.17.61,1.9.58,5.95-.02,2.51-.04,4.36-.05,5.73a24.372,24.372,0,0,1,2.66.17c.01.49-.55.81-1.34,1.05-.48.15-.92.26-1.33.36a23.743,23.743,0,0,0,.18,4.28c.92.67.69.99.26,2a6.2,6.2,0,0,1,.57,3.49c-.17,1.51-.25,3.06-.43,4.56.2,1.14.82.76,2.22,1.41.57.26,1.02-.31,1.07-1.24.19-3.71-.36-9.82,1.89-8.1a5.654,5.654,0,0,1,.76.93,1.567,1.567,0,0,1,1.64-.27c.72,1.83-.2,19.64.25,22.03.36,1.86.76.49,1.38,2.26.75,2.13.62.53.76,2.22-.16-.03-.28-.06-.41-.09a5.829,5.829,0,0,0-.1,2.76,14.7,14.7,0,0,1,.36,6.92,17.231,17.231,0,0,1,.26,5.1,4.157,4.157,0,0,1-1.07,2.96c-.89.8-.52,3.84-.64,8.08.83.33.99.2,1.42-3.69a26.842,26.842,0,0,1,.82,3.67c.28-.49.17-3.5.46-7.21a.762.762,0,0,1,.19-.35v-.13l.037.044-.033-.044c.1-.284.092-.437.042.056l0,0c-.02.02-.03.05-.05.07.33,12.66.07,10.87.41,12.61.3-.96.23.96.5-3.53.25-4.36.49,4.49.36,8.4-.39,12.23.22,19.87-.8,23.73-.16.57-.11.73-.45,6.93-.19,3.48.5,4.79.37,6.05-.27,2.74.39,11.67.04,12.1-.85-.37-.15-1.59-.57-4.02-.1.14-.22.24-.22.34-.09,7.2.27,1.91-.55,8.94-.08.03-.84.74-.84.74-.54-.6-.04-1.65-.5-2.36-.07,2.1-.14,4.13-.23,6.7a27.9,27.9,0,0,1-.25-4.52c-.2.08-.38.09-.39.16-.67,4.87.41,5.31.46,12.97.01,1.16.17,2.32.2,3.48.18,6.04-.07,6.83.53,7.24-.07-3.03-.08-18.56.13-19.06.7,5.32-.11,7.14.61,9.98.52-.26.26-.96.32-1.42a10.536,10.536,0,0,0-.05-2.02c-.15-1.87-.52-1.32.29-3.56.07.05.13.07.14.11.51,2.64-.33,3.91.62,5.63.13-.28.25-.56.36-.79.2-.01.3.12.29.36-.01.95-.13,18.44.27,25.86.31,5.5-.36,5.35-.05,6.63a4.111,4.111,0,0,1-.21,2.5c-1.3,1.77-.43,3.21-.5,4.58-.11,1.92.19,9.84-.25,11.17-.09-.1-.26-.19-.26-.29-.26-8.52.05-12.32-.49-17.99-.25-2.72.1-5.37-.34-10.16-.58-6.27.12-6.84-.71-7.25-.97.34-.15,1.12-.23,7.13a1.775,1.775,0,0,1-.14.5c-.19.03-.38.07-.55.09a2.744,2.744,0,0,0-.39,1.64,50.494,50.494,0,0,0,.5,7.49c.29,1.4.2,16.54.03,18.54-.58-4.34-.25-3.02-.64-1.26-.47,2.1-.44-1.11-.39,10.95.02,2.2.7,4.38-.9,5.46-.9.61-.18,1.78-.1,2.29-.05,2.01-.1,3.61-.14,4.88l.85.03h0c.079-3.141-.122-3.491.109-4.079.25.382.148.717.128,2.7a3.91,3.91,0,0,1-.112,1.39h.012c1.028.03,1.947.08,2.657.15,0-.887.013-.7.1-.854.071.292.127.6.174.893h.007a6.883,6.883,0,0,1,.725.139c.013-.44.027-.877.023-1.309-.177-.185-1.73-1.473-1.006-2.729,1.141-1.978.369-4.78.947-6.671a1.7,1.7,0,0,0,.049-.569c-.149-2.311.071-4.629-.062-6.942a8.424,8.424,0,0,1,.316-2.27c.132,4.325.2,9.26-.1,13.552-.195,2.844.187,2.8.276,7.12a.09.09,0,0,1,.038.019c-.009.018-.025.038-.036.063.013.661.019,1.418.016,2.307a4.239,4.239,0,0,1-.235.869,11.01,11.01,0,0,1-.245-2.858,5.93,5.93,0,0,1-.62.059h0c.066.893-.03,1.55-.366,1.336,0-.531,0-.954,0-1.307a32.232,32.232,0,0,1-3.689-.02c-.22,6.07-.29,2.84-.31,5.02,0,.25.03.54.06.86,4.5.24,4.72.15,5.49.31C1109.695,458.527,1109.265,458.927,1108.495,458.917Zm-72.255.329a3.786,3.786,0,0,1-.7-.139c2.029-.274,3.57-.276,9.041.037C1042.409,459.352,1044.047,459.376,1036.24,459.246Zm9.2.9c-.422.14.479.12-5,.013.585-.227.509-.157,3.7-.186A2.434,2.434,0,0,1,1045.435,460.149Zm-360.691-2.63c.01.052-.043.111-.067.167-.055-.007-.145,0-.158-.024C684.39,457.447,684.679,457.165,684.744,457.519Zm2.332-1.129.324-.064a1.345,1.345,0,0,1,.327.05c.061.087-.121.133-.45.107A.577.577,0,0,1,687.076,456.39Zm1.723.947a.912.912,0,0,1,.638.124l-.312.091C688.646,457.609,688.235,457.407,688.8,457.337Zm.977-.97.3.062C689.639,456.451,689.714,456.471,689.776,456.367Zm2.986.043.36-.046C693.117,456.478,693.21,456.462,692.762,456.41Zm4.27,1.018a5.677,5.677,0,0,1-3.156.079A6.258,6.258,0,0,1,697.032,457.428Zm-1.474-1.027a9.274,9.274,0,0,1,2.325-.023A7.63,7.63,0,0,1,695.558,456.4Zm4.931,1.013c5.6-.156,4.073-.146,5.566,0-1.841.429-3.672-.083-5.309.2Zm5.865-1.018c.327-.092.089-.114.865.027C706.862,456.519,707.05,456.521,706.354,456.4ZM691.978,454.7c.116-.2-.081-.346.943-.369,2.179-.05,12.137-.122,13.31.123-.482.245-.394.473-2.311.44C695.991,454.761,694.225,455.27,691.978,454.7Zm2.75-5.969a9.592,9.592,0,0,1,3.567-.034A7.741,7.741,0,0,1,694.728,448.735Zm-6.553-.18c-.138-.071-.132-.009-.062-.224C688.251,448.4,688.246,448.338,688.175,448.555Zm-.233.276c.076.338-1.841.4-1.409-.054a7.713,7.713,0,0,1,.924-.13C687.615,448.641,687.926,448.76,687.942,448.831Zm-4.692,4.939c.02-.027.1-.028.157-.04C683.6,454.215,683.041,454.058,683.25,453.77ZM663.7,430.75c0-.066.084-.131.32-.477.381,7.2.583,7.667.6,7.684h0c-.021,0-.2.251-.544,5.98-.469.148-.519-.091-.561-.259C662.377,439.146,663.483,438.956,663.7,430.75Zm3.388,4.647c.031-.017.053-.032.082-.049.016-.143.035-.484.1-1.25.521.725.512.891-.1,1.25-.008.065-.015.086-.025.089.015.011.012.011,0,0l-.011-.006-.044-.026c.152,1.931.087,2.77.892,3.661.2-.473.367-.883.541-1.3,1.423.491.694,1.824.322,3.052l.061-.045c.152.2.173.189-.054.049-.936.652-.2,2.519-1.264,3.273-.079.009-.2.045-.222.022-1.939-1.866-1.093-1.018-1.493-2.551a10.255,10.255,0,0,1-.209-2.431c-.069-3.293-.747-5.467-.207-7.379,1.372,1.83.837,2.309,1.3,3.392a1.358,1.358,0,0,0,.337.261Zm.188-3.763c.421.537.447.865.167,1.24C666.919,432.466,667.227,432.152,667.276,431.634Zm2.962,2.454c-.092-1.5-.131-1.1.207-1.448.053.06.151.12.151.179A1.451,1.451,0,0,1,670.238,434.088Zm.056,2.2.1-.184C670.44,436.359,670.473,436.314,670.294,436.286Zm.071,1.249c.571.8.15,1.515.023,2.222A2.361,2.361,0,0,1,670.365,437.535ZM921.38,227.524l0,0-.1-.043a2.52,2.52,0,0,1-.7.231,24.288,24.288,0,0,1-5.438-.229c-.2-.04-.282-.19-.474-.329,4.227-.273,6.156.184,6.614.327.325-.123.294-.137.106.038Zm177.58,27.984c-.141.071-.116.1-.1-.1Zm10.126,114.738c-.561-2.384-.74-2.39-.431-7.351.126.189.271.3.273.425a26.544,26.544,0,0,1,.2,3.428C1108.984,368.021,1109.523,369.127,1109.086,370.246Zm-.059,6.423c-.344-1.645-.5-2.015-.183-2.241.072-.051.2.089.353.167C1109.2,376.816,1109.254,376.477,1109.027,376.669Zm-.118-17.1c.037-.047.03-.112.074.134.192.342.146.241.084.463-.041-.221-.066-.365-.084-.463Zm-1.366,10.3-.084-.1C1107.587,369.7,1107.561,369.673,1107.543,369.872Zm-1.643,65.687a28.038,28.038,0,0,1,.072-3.459C1106.034,434.9,1106.109,434.962,1105.9,435.559Zm-.008,2.21v-.557C1106.129,437.648,1105.955,438.027,1105.892,437.769Zm-.334,6.925a6.315,6.315,0,0,1-.029-2.969A5.131,5.131,0,0,1,1105.558,444.694Zm4.041.15c-.139-.019-.208-.178-.138-.368.057-.152.174-.2.217-.258,0-.046-.005-.083-.005-.1a.069.069,0,0,1,.005.1C1109.688,444.421,1109.7,444.859,1109.6,444.844Zm.293-1.18a1.047,1.047,0,0,1-.175.384l0,.13a.116.116,0,0,1,0-.13c-.21-13.544.169-13.98-.279-18.132.1-.614.172-1.079.246-1.544-.078.079-.068.039-.027-.061a2.014,2.014,0,0,1-.244-.688,62.1,62.1,0,0,1,.076-8.7c.288.48.093,1.029.157,1.515.353,2.7-.037,4.89.268,6.629a2.443,2.443,0,0,1-.257,1.241c.009.02.019.04.027.061-.12.122.25.393.266.726C1110.018,426.51,1110.225,439.429,1109.892,443.664Z" fill="#F85126"/>
    </g>
    <circle id="Ellipse_20" data-name="Ellipse 20" cx="28.246" cy="28.246" r="28.246" transform="translate(1059.642 420.086)" fill="#F85126"/>
    <path id="Path_620" data-name="Path 620" d="M1108.471,452.508l-26.885,15.521a5.6,5.6,0,0,1-8.4-4.85V432.131a5.6,5.6,0,0,1,8.4-4.844l26.885,15.521a5.6,5.6,0,0,1,0,9.7Z" fill="#F85126" fill-rule="evenodd"/>
    <path id="Path_621" data-name="Path 621" d="M1107.039,451.06l-25.688,14.834a3.931,3.931,0,0,1-5.9-3.406V432.821a3.931,3.931,0,0,1,5.9-3.4l25.688,14.834a3.93,3.93,0,0,1,0,6.8Z" fill="#fff" fill-rule="evenodd"/>
  </g>
</svg>
